<?xml version="1.0" encoding="utf-8"?>
<!-- Generator: Adobe Illustrator 25.4.1, SVG Export Plug-In . SVG Version: 6.00 Build 0)  -->
<svg version="1.1" id="Layer_1" xmlns="http://www.w3.org/2000/svg" xmlns:xlink="http://www.w3.org/1999/xlink" x="0px" y="0px"
	 viewBox="0 0 600 600" style="enable-background:new 0 0 600 600;" xml:space="preserve">
<style type="text/css">
	.st0{fill:#F2843F;}
	.st1{fill:#6A56A4;}
	.st2{fill:#FFFFFF;stroke:#F3F9EF;stroke-miterlimit:10;}
</style>
<g>
	<path class="st0" d="M59.2,268.7c0-33.4,18.6-60.4,41.6-60.4h7.1v70.7H59.2V268.7z"/>
	<rect x="12.1" y="208.3" class="st1" width="45.4" height="141.3"/>
	<path class="st0" d="M107.9,339.3c0-33.4-18.6-60.4-41.6-60.4h-7.1v70.7h48.7V339.3z"/>
	<path class="st2" d="M151.2,342.7c-5.6,0-10.7-1.9-15.3-5.8c-4.6-4-8.2-9.3-11-15.9c-2.7-6.6-4-14.1-4-22.2s1.3-15.5,4-22
		c2.7-6.5,6.4-11.7,11-15.6c4.6-4,9.7-5.9,15.3-5.9c5.7,0,10.9,1.9,15.4,5.8c4.6,3.8,8.2,9.1,10.9,15.7c2.7,6.5,4.1,13.9,4.1,22
		s-1.4,15.6-4.1,22.2c-2.7,6.6-6.3,12-10.9,15.9C162,340.8,156.9,342.7,151.2,342.7z M151.2,324.1c3.3,0,6.2-1,8.7-3.1
		c2.6-2.2,4.5-5.2,5.9-9.1c1.4-3.8,2.2-8.2,2.2-13.1s-0.7-9.2-2.2-12.9c-1.4-3.7-3.4-6.6-5.9-8.7c-2.5-2.2-5.4-3.3-8.7-3.3
		c-3.2,0-6.1,1.1-8.7,3.3c-2.5,2.1-4.5,5-5.9,8.7c-1.4,3.7-2.1,8-2.1,12.9s0.7,9.3,2.1,13.1c1.4,3.8,3.4,6.9,5.9,9.1
		C145,323.1,147.9,324.1,151.2,324.1z M232.3,340.9v-48.5c0-5.6-1.2-10.2-3.7-13.8c-2.4-3.6-5.6-5.4-9.4-5.4c-2.6,0-4.9,0.8-6.9,2.4
		c-2,1.6-3.6,3.9-4.7,6.8c-1.1,2.9-1.7,6.2-1.7,10l-5.2-4.2c0-6.4,1-12.1,2.9-17c1.9-5,4.6-8.9,8-11.7c3.5-2.9,7.3-4.4,11.6-4.4
		c4.3,0,8.2,1.6,11.6,4.9c3.4,3.1,6,7.3,8,12.4c1.9,5,2.9,10.3,2.9,15.7v52.7H232.3z M192.6,340.9v-84h13.3v84H192.6z M298.8,340.9
		v-48.5c0-5.6-1.2-10.2-3.7-13.8c-2.4-3.6-5.6-5.4-9.4-5.4c-2.6,0-4.9,0.8-6.9,2.4c-2,1.6-3.6,3.9-4.7,6.8c-1.1,2.9-1.7,6.2-1.7,10
		l-5.2-4.2c0-6.4,1-12.1,2.9-17c1.9-5,4.6-8.9,8-11.7c3.5-2.9,7.3-4.4,11.6-4.4c4.3,0,8.2,1.6,11.6,4.9c3.4,3.1,6,7.3,8,12.4
		c1.9,5,2.9,10.3,2.9,15.7v52.7H298.8z M259.1,340.9v-84h13.3v84H259.1z M352.5,342.7c-5.8,0-11-1.9-15.7-5.6
		c-4.6-3.8-8.2-9.1-11-15.7c-2.7-6.6-4-14.1-4-22.4c0-8.3,1.3-15.7,4-22.2c2.7-6.6,6.2-11.9,10.7-15.7c4.6-3.8,9.7-5.8,15.2-5.8
		c5.4,0,10.1,1.8,14.2,5.4c4.2,3.6,7.4,8.6,9.8,14.9c2.4,6.3,3.6,13.5,3.6,21.5c0,1.4-0.1,2.9-0.2,4.4c-0.1,1.4-0.2,3-0.5,4.7h-47.5
		v-15.7h40.7l-4.9,6.3c-0.2-5.1-0.8-9.4-2.1-12.9c-1.2-3.5-2.9-6.2-5.2-8c-2.2-1.9-4.9-2.8-8.1-2.8c-3.4,0-6.3,1.1-8.8,3.1
		c-2.5,2.1-4.4,5.1-5.8,8.9c-1.4,3.7-2.1,8.2-2.1,13.5c0,5.2,0.7,9.9,2.2,13.8c1.4,4,3.5,7.1,6.2,9.3c2.7,2.1,5.7,3.1,9.2,3.1
		c3,0,5.7-0.8,8.2-2.3c2.6-1.5,4.7-3.7,6.5-6.6l8.4,12.4c-2.8,4.8-6.2,8.4-10.3,10.8C361.2,341.5,357,342.7,352.5,342.7z
		 M414.3,342.7c-5.2,0-10-1.9-14.2-5.8c-4.2-3.8-7.5-9-10-15.6c-2.4-6.6-3.6-14.1-3.6-22.2c0-8.3,1.2-15.7,3.6-22.2
		c2.5-6.6,5.8-11.9,10-15.7c4.3-4,9-5.9,14.2-5.9c4.4,0,8.3,1.4,11.7,4.2c3.5,2.7,6.2,6.4,8.2,11.2c2,4.8,3,10.2,3,16.3V311
		c0,6.1-1,11.5-3,16.3c-1.9,4.8-4.6,8.6-8.1,11.4C422.6,341.4,418.7,342.7,414.3,342.7z M416.4,324.5c4.9,0,8.9-2.4,11.8-7.2
		c3.1-4.8,4.6-10.9,4.6-18.4c0-5-0.7-9.4-2.1-13.3c-1.4-3.8-3.3-6.8-5.8-8.9c-2.4-2.2-5.3-3.3-8.6-3.3c-3.2,0-6.1,1.1-8.6,3.3
		c-2.4,2.1-4.3,5.1-5.8,8.9c-1.4,3.8-2.1,8.3-2.1,13.3c0,5,0.7,9.4,2.1,13.3c1.4,3.8,3.4,6.9,5.8,9.1
		C410.4,323.4,413.2,324.5,416.4,324.5z M432,375.9v-55.6l2.3-20.3l-2.3-20.5V257h13.3v119H432z M468.8,340.9V222h13.3v119H468.8z
		 M454.9,274.5V257h41v17.5H454.9z M528.2,342.7c-5.2,0-10-1.9-14.2-5.8c-4.2-3.8-7.5-9-10-15.6c-2.4-6.6-3.6-14.1-3.6-22.2
		c0-8.3,1.2-15.7,3.6-22.2c2.5-6.6,5.8-11.9,10-15.7c4.3-4,9-5.9,14.2-5.9c4.4,0,8.3,1.4,11.7,4.2c3.5,2.7,6.2,6.4,8.2,11.2
		c2,4.8,3,10.2,3,16.3V311c0,6.1-1,11.5-3,16.3c-1.9,4.8-4.6,8.6-8.1,11.4C536.6,341.4,532.6,342.7,528.2,342.7z M530.4,324.5
		c4.9,0,8.8-2.4,11.8-7.2c3.1-4.8,4.6-10.9,4.6-18.4c0-5-0.7-9.4-2.1-13.3c-1.4-3.8-3.3-6.8-5.8-8.9c-2.4-2.2-5.3-3.3-8.6-3.3
		c-3.2,0-6.1,1.1-8.6,3.3c-2.4,2.1-4.3,5.1-5.8,8.9c-1.4,3.8-2.1,8.3-2.1,13.3c0,5,0.7,9.4,2.1,13.3c1.4,3.8,3.4,6.9,5.8,9.1
		C524.3,323.4,527.2,324.5,530.4,324.5z M546,340.9v-22.6l2.3-20.5l-2.3-20.3V257h13.3v84H546z M584.1,342.7c-2.6,0-4.7-1.2-6.4-3.7
		c-1.6-2.6-2.4-5.7-2.4-9.3c0-3.7,0.8-6.8,2.4-9.3c1.7-2.4,3.8-3.7,6.4-3.7c2.6,0,4.7,1.2,6.3,3.7c1.7,2.4,2.5,5.5,2.5,9.3
		c0,3.6-0.8,6.7-2.5,9.3C588.8,341.5,586.7,342.7,584.1,342.7z"/>
</g>
</svg>
